PathFileType	4	(X/Y/Z)	..\data\2014034\dynamic\2014034_C4_04.trc
DataRate	CameraRate	NumFrames	NumMarkers	Units	OrigDataRate	OrigDataStartFrame	OrigNumFrames
100.000000	100.000000	4	52	mm	100.000000	67	180
Frame#	Time	L_IAS			L_IPS			R_IPS			R_IAS			L_FTC			L_FLE			L_FME			L_FAX			L_TTC			L_FAL			L_TAM			L_FCC			L_FM1			L_FM2			L_FM5			R_FTC			R_FLE			R_FME			R_FAX			R_TTC			R_FAL			R_TAM			R_FCC			R_FM1			R_FM2			R_FM5			CV7			TV10			SXS			SJN			L_SIA			L_SRS			L_SAA			L_SAE			L_HLE			L_HME			L_UOA			L_RSP			L_UHE			L_HM2			L_HM5			R_SIA			R_SRS			R_SAA			R_SAE			R_HLE			R_HME			R_UOA			R_RSP			R_UHE			R_HM2			R_HM5			
		X1	Y1	Z1	X2	Y2	Z2	X3	Y3	Z3	X4	Y4	Z4	X5	Y5	Z5	X6	Y6	Z6	X7	Y7	Z7	X8	Y8	Z8	X9	Y9	Z9	X10	Y10	Z10	X11	Y11	Z11	X12	Y12	Z12	X13	Y13	Z13	X14	Y14	Z14	X15	Y15	Z15	X16	Y16	Z16	X17	Y17	Z17	X18	Y18	Z18	X19	Y19	Z19	X20	Y20	Z20	X21	Y21	Z21	X22	Y22	Z22	X23	Y23	Z23	X24	Y24	Z24	X25	Y25	Z25	X26	Y26	Z26	X27	Y27	Z27	X28	Y28	Z28	X29	Y29	Z29	X30	Y30	Z30	X31	Y31	Z31	X32	Y32	Z32	X33	Y33	Z33	X34	Y34	Z34	X35	Y35	Z35	X36	Y36	Z36	X37	Y37	Z37	X38	Y38	Z38	X39	Y39	Z39	X40	Y40	Z40	X41	Y41	Z41	X42	Y42	Z42	X43	Y43	Z43	X44	Y44	Z44	X45	Y45	Z45	X46	Y46	Z46	X47	Y47	Z47	X48	Y48	Z48	X49	Y49	Z49	X50	Y50	Z50	X51	Y51	Z51	X52	Y52	Z52	

68	0.67	796.5085449218752	997.7581176757815	-392.1439819335939	589.6594238281251	1031.970458984375	-292.8756103515626	592.0562133789064	1026.666625976563	-197.3496093750001	806.9913330078127	1006.997619628906	-115.8279037475586	695.6469726562501	940.7144165039065	-439.1467285156251	597.4829101562501	504.2926330566407	-401.7200622558595	603.5174560546876	493.346893310547	-255.1971282958985	550.9649047851564	461.823944091797	-405.4595642089845	618.2210083007814	413.500701904297	-350.9267883300782	314.4395446777344	149.2156372070313	-384.5182189941407	329.4204101562501	151.0475006103516	-287.7379150390626	241.0863189697266	137.9528198242188	-338.9914245605469	406.7014465332032	21.77526473999024	-274.0059509277344	424.8824768066407	35.68087768554688	-334.9745483398438	390.6752014160157	24.44145774841309	-390.1081848144532	727.0811767578126	937.555847167969	-61.90438842773439	886.0598754882815	521.8366699218751	-102.3007965087891	913.4739990234377	516.6737670898439	-242.4360504150391	890.9715576171877	462.9480590820314	-101.2803573608399	965.6182250976565	469.7430725097657	-153.7293701171875	961.760192871094	67.53152465820314	-113.918815612793	994.5962524414065	88.14013671875001	-206.4358673095704	925.934997558594	14.35944938659668	-172.8715209960938	1143.583129882813	43.92784500122071	-191.0923004150391	1138.771606445313	58.10890960693361	-130.5564575195313	1100.45751953125	25.93572235107423	-88.60964202880861	688.1450805664064	1550.24951171875	-237.9161834716797	577.5056152343751	1287.331909179688	-251.9848785400391	859.207946777344	1238.651611328125	-245.4909362792969	804.2999267578127	1445.3681640625	-228.4220581054688	582.5070800781251	1323.232299804688	-366.2617797851563	637.2089233398439	1481.348266601563	-360.9020996093751	706.1502685546876	1477.811889648438	-432.7571411132814	778.2508544921877	1462.871459960938	-440.1587219238282	822.1397705078127	1149.324951171875	-548.3615722656251	778.820495605469	1110.201416015625	-464.1613159179689	788.4265747070315	1102.225341796875	-525.9298706054689	1033.299072265625	958.173767089844	-512.0222778320314	988.6821899414065	939.9134521484377	-582.5328979492189	1119.08544921875	896.7295532226565	-529.3731689453126	1030.842529296875	850.7720947265627	-585.4190063476564	561.4038696289064	1316.692993164063	-157.5559539794922	624.8260498046876	1471.220947265625	-140.3409729003907	664.7792358398439	1470.134887695313	-58.75336074829103	717.8314208984376	1458.447875976563	-27.22988510131837	566.2012939453126	1146.025390625	-16.12971878051758	560.4263916015626	1141.8427734375	-109.05224609375	531.3355712890626	1137.306640625	-58.79374313354494	574.2271728515626	851.9805297851565	-29.30881118774415	506.5804748535157	875.3629150390627	11.58851718902588	559.3287963867189	755.8432617187501	-22.66936492919922	456.1123962402345	794.532409667969	-7.157255649566652	
69	0.68	811.6209716796877	998.975036621094	-389.746307373047	603.9980468750001	1032.95947265625	-292.9362487792969	606.1441040039064	1028.405639648438	-196.9158477783204	820.8640136718752	1009.2138671875	-114.080551147461	711.2991333007814	940.5413818359377	-437.9124755859376	617.5769042968751	503.6585388183595	-402.9800415039064	625.1348876953126	491.1788635253907	-256.6588439941407	570.3283081054689	462.2886962890626	-406.9773559570314	637.1747436523439	412.163299560547	-353.5145568847657	325.0764160156251	157.0887908935547	-385.3742675781251	341.0078430175782	157.7706146240235	-289.0264282226563	252.3069000244141	149.94970703125	-339.1913757324219	407.7020874023439	23.8900146484375	-273.9978027343751	426.1662597656251	36.39780807495118	-334.7106018066407	393.0457153320314	26.99030685424805	-389.4658813476564	740.9398193359376	939.662780761719	-60.33890914916994	900.2734985351565	523.7019653320314	-101.5510482788086	927.327575683594	518.9281616210939	-241.5932922363282	904.761657714844	464.8137512207032	-100.6664047241211	978.746276855469	470.1763610839845	-153.7759094238282	963.8905029296877	67.56604766845705	-114.1433868408203	995.962829589844	86.96109771728517	-207.1377868652344	925.585144042969	15.15376663208008	-172.5452728271485	1144.771850585938	37.9858627319336	-192.2462310791016	1140.8408203125	53.17781066894533	-131.2183837890625	1101.546752929688	22.65834617614746	-88.59444427490236	702.4656982421876	1551.582397460938	-234.7275085449219	591.7655639648439	1288.654663085938	-250.4491424560547	873.6322021484377	1239.90283203125	-243.802963256836	818.7808837890627	1446.502685546875	-225.9820251464844	596.8110961914064	1325.592407226563	-364.6845092773438	651.2949829101564	1483.590209960938	-358.0782470703126	720.3649291992189	1480.206787109375	-429.8924560546876	792.3660888671877	1465.0224609375	-437.3771362304689	832.445251464844	1150.791015625	-546.2753906250001	789.5230102539065	1112.17578125	-461.5830993652345	798.5449829101565	1103.813110351563	-523.4858398437501	1043.192016601563	958.9315185546877	-511.2395019531251	997.5467529296877	940.1746826171877	-580.9152221679689	1128.900512695313	897.7426757812502	-529.6375732421876	1039.799072265625	850.943054199219	-583.7452392578126	576.6263427734376	1317.854858398438	-154.548324584961	639.7929077148439	1472.271484375	-136.9985046386719	680.3940429687501	1470.558227539063	-55.75901031494142	733.6021118164064	1458.680786132813	-24.64974594116212	582.5527343750001	1145.971557617188	-13.28080940246582	575.7944946289064	1142.162841796875	-106.0734176635742	547.2415771484376	1137.34228515625	-55.47370910644533	592.0149536132814	852.087097167969	-27.38400840759278	524.4646606445314	874.9399414062502	13.94072341918946	577.8262329101564	755.6504516601564	-20.72164726257325	474.384490966797	793.8079223632815	-4.652147769927979	
70	0.6900000000000001	826.609802246094	1000.384826660156	-387.2651977539064	618.1823730468751	1034.040893554688	-292.8298645019532	620.0849609375001	1030.268432617188	-196.3370819091797	834.596862792969	1011.632995605469	-112.2122879028321	726.9335327148439	940.508728027344	-436.5704040527345	638.6541137695314	503.0345764160157	-404.4274902343751	648.1564941406251	488.8509826660157	-258.3853454589844	590.7833251953126	462.8272399902345	-408.7075500488282	657.1597900390626	410.9489135742189	-356.3510437011719	337.1798095703126	165.3493804931641	-386.2535095214845	354.0073852539063	164.779541015625	-290.3012695312501	265.2466430664063	162.5589904785157	-339.4216613769532	409.3168029785157	26.81702613830567	-274.0898132324219	428.0707397460939	37.52196502685548	-334.5026550292969	396.028533935547	30.33584594726563	-388.8253784179689	754.6021118164064	941.674987792969	-58.72973632812501	913.8386840820315	525.3901977539064	-100.8478164672852	940.2673950195315	520.8829956054689	-240.8796691894532	917.8518066406252	466.523162841797	-100.1022644042969	991.170593261719	470.430877685547	-153.9493560791016	965.7331542968752	67.83788299560548	-114.4558639526367	996.9808349609377	86.13638305664064	-207.9176177978516	925.3715820312502	15.92077350616455	-172.2737731933594	1145.597290039063	33.16027069091798	-193.3986816406251	1142.577880859375	49.35675048828126	-131.7876281738282	1102.46240234375	20.42905807495118	-88.49330902099611	716.7159423828126	1553.05419921875	-231.7659912109376	605.9165039062501	1290.118530273438	-248.9994506835938	887.928649902344	1241.294189453125	-242.1659240722657	833.143737792969	1447.772705078125	-223.7317810058594	611.1555175781251	1328.13037109375	-363.3666381835938	665.3450317382814	1485.9453125	-355.4668579101563	734.5687255859376	1482.731323242188	-427.2085266113282	806.455261230469	1467.290405273438	-434.7341308593751	842.5200195312502	1152.3017578125	-544.1993408203126	799.871520996094	1114.286865234375	-459.0500793457032	808.3149414062502	1105.504760742188	-521.0659790039064	1052.487060546875	959.3657836914065	-510.3655090332032	1005.824401855469	940.2264404296877	-579.2127075195314	1137.98291015625	898.2342529296877	-529.7298583984376	1047.994384765625	850.8259277343752	-581.9699096679689	591.7078857421876	1319.264282226563	-151.6588592529297	654.6742553710939	1473.527465820313	-133.8295135498047	696.0272827148439	1471.226928710938	-52.93783187866212	749.3678588867189	1459.177124023438	-22.27054786682129	599.2334594726564	1146.014526367188	-10.38935947418213	591.3510742187501	1142.568359375	-103.0407257080078	563.4265136718751	1137.433837890625	-52.06504058837892	610.3640136718751	852.3050537109377	-25.40999031066895	542.9549560546876	874.579040527344	16.42345237731934	597.0070800781251	755.5083007812501	-18.63671684265137	493.3287353515626	793.0917968750002	-1.879210114479065	
71	0.7000000000000001	841.3936767578127	1001.937805175781	-384.7825012207032	632.1725463867189	1035.1591796875	-292.5021057128907	633.8704223632814	1032.189208984375	-195.593490600586	848.180114746094	1014.159851074219	-110.2591781616211	742.4644165039064	940.6190185546877	-435.1297607421876	660.6306152343751	502.4579467773439	-406.0350952148439	672.4571533203126	486.4548950195314	-260.3411254882813	612.2709350585939	463.4544372558595	-410.6190185546876	678.1148681640626	409.9080200195314	-359.3580017089844	350.7770385742188	173.9302673339844	-387.1812744140626	368.4003295898438	172.0352325439453	-291.5636291503907	279.9175415039063	175.6423950195313	-339.7280578613282	411.7813720703126	30.61445236206055	-274.3045959472657	430.8011169433595	39.12078475952149	-334.3735656738282	399.7821044921876	34.52147293090821	-388.2257080078126	768.0738525390627	943.5441894531252	-57.09861373901369	926.6695556640627	526.8344726562501	-100.1934204101563	952.2488403320315	522.4620361328126	-240.2874298095704	930.129821777344	467.9975891113282	-99.59050750732425	1002.830505371094	470.4620971679689	-154.1966552734375	967.3137207031252	68.27040100097658	-114.8503570556641	997.7463989257815	85.5988235473633	-208.7489624023438	925.3254394531252	16.60938835144043	-172.0779571533203	1146.145141601563	29.41486740112305	-194.5072479248047	1144.04541015625	46.56809234619141	-132.2427215576172	1103.242431640625	19.12049102783203	-88.31344604492189	730.8546752929689	1554.626098632813	-229.071029663086	619.9328002929689	1291.682983398438	-247.6141815185547	902.0669555664065	1242.79150390625	-240.6031341552735	847.3474731445315	1449.15087890625	-221.6966094970704	625.4794311523439	1330.759887695313	-362.2654724121094	679.3142089843751	1488.33935546875	-353.0867919921876	748.6998901367189	1485.307495117188	-424.738250732422	820.460388183594	1469.608764648438	-432.2771606445314	852.3896484375002	1153.80419921875	-542.1531372070314	809.9053955078127	1116.473876953125	-456.5793762207032	817.7734375000002	1107.252807617188	-518.6916503906251	1061.226318359375	959.450134277344	-509.3974609375001	1013.571166992188	940.055114746094	-577.4422607421876	1146.365356445313	898.1577758789065	-529.6192626953126	1055.466796875	850.4096679687502	-580.1067504882814	606.6123657226564	1320.86376953125	-148.9114532470703	669.4182739257814	1474.94580078125	-130.8735809326172	711.6184082031251	1472.126953125	-50.3217239379883	765.0615234375001	1459.9365234375	-20.11439514160157	616.1966552734376	1146.148559570313	-7.469407081604006	607.0662231445314	1143.039428710938	-99.96613311767581	579.8533325195314	1137.56494140625	-48.58928298950197	629.2583618164064	852.628356933594	-23.40658950805664	562.0352783203126	874.2719726562502	19.01582145690918	616.8531494140626	755.4221801757814	-16.45114517211914	512.9384765625001	792.3789062500002	1.138894319534302	
